<?xml version="1.0" encoding="UTF-8"?>
<svg xmlns="http://www.w3.org/2000/svg" viewBox="0 0 14.7742 15.4304">
  <defs>
    <style>
      .cls-1 {
        fill: #555;
        stroke: #676767;
        stroke-width: .1px;
      }

      .cls-1, .cls-2 {
        stroke-miterlimit: 10;
      }

      .cls-3 {
        fill: #fff;
      }

      .cls-2 {
        fill: #1c1c1c;
        stroke: #626262;
        stroke-width: .25px;
      }
    </style>
  </defs>
  <g id="Abajo">
    <polygon class="cls-2" points="8.0795 .4883 8.0795 5.1108 10.4375 2.7996 14.4064 .3715 11.6982 4.9007 10.134 6.6984 14.0153 6.6984 12.3782 8.4698 9.3052 8.4698 9.3052 12.3657 12.1943 12.3657 12.1943 10.5447 13.9803 12.068 13.9803 14.1254 7.5552 14.1254 7.5552 9.3453 3.5095 13.2324 .3753 15.0709 2.4852 11.6128 4.8665 8.496 .2965 8.496 2.0124 6.7363 6.3548 6.7363 6.3548 2.2626 8.0795 .4883"/>
    <path class="cls-2" d="M1.5192,2.4027l2.1916,3.5545h1.9698l-2.1362-3.5545s-2.018-.0073-2.0253,0Z"/>
  </g>
  <g id="Intermedio">
    <path class="cls-1" d="M6.912,2.4842l.613-.5537v4.5418c0,.0099,3.2696-3.1971,3.2696-3.1971l3.0125-2.3138-2.9334,3.9683-2.0567,2.3665h3.8365l-.5636.5636h-3.4179v5.1318h4.1595v-1.1404l.5471.468v1.2063h-5.2405v-5.6558l-4.7725,4.7198-2.7131,2.2009,1.9758-2.5124,3.499-4.4037H1.7498l.5253-.5603h4.6838s-.047-4.8446-.047-4.8299Z"/>
    <polygon class="cls-1" points="2.5815 3.0155 4.0173 5.4143 4.6652 5.4143 3.2469 3.0155 2.5815 3.0155"/>
  </g>
  <g id="Blanco">
    <polygon class="cls-3" points="13.3324 1.4105 10.9861 3.6984 7.0873 7.6672 4.0757 11.0641 1.5192 13.9124 3.0718 12.4299 5.1496 10.3287 8.955 6.3365 13.3324 1.4105"/>
  </g>
</svg>