<?xml version="1.0" encoding="UTF-8"?>
<svg xmlns="http://www.w3.org/2000/svg" viewBox="0 0 28.8536 11.0420">
  <defs>
    <style>
      .cls-1 {
        fill: none;
      }

      .cls-2 {
        fill: #4e48e0;
        stroke: #9592ec;
        stroke-width: .25px;
      }

      .cls-2, .cls-3 {
        stroke-miterlimit: 10;
      }

      .cls-3 {
        fill: #9592ec;
        stroke: #dad9f8;
        stroke-width: .1px;
      }

      .cls-4 {
        fill: #fff;
      }
    </style>
  </defs>
  <g transform="translate(-0.8000 -0.0000)"><g id="Logo">
    <g id="Abajo">
      <polygon class="cls-2" points="6.568 .4534 6.568 3.6936 8.2209 2.0735 11.0029 .3715 9.1046 3.5463 8.0081 4.8064 10.7288 4.8064 9.5812 6.0481 7.4272 6.0481 7.4272 8.779 9.4523 8.779 9.4523 7.5026 10.7042 8.5704 10.7042 10.0126 6.2004 10.0126 6.2004 6.6618 3.3646 9.3866 1.1676 10.6753 2.6465 8.2513 4.3158 6.0666 1.1123 6.0666 2.3152 4.833 5.359 4.833 5.359 1.6971 6.568 .4534"/>
      <path class="cls-2" d="M1.9694,1.7953l1.5363,2.4916h1.3808l-1.4974-2.4916s-1.4145-.0051-1.4197,0Z"/>
    </g>
    <g id="Intermedio">
      <path class="cls-3" d="M5.7496,1.8525l.4297-.3881v3.1837c0,.0069,2.2919-2.241,2.2919-2.241l2.1117-1.6219-2.0562,2.7817-1.4417,1.6588h2.6892l-.3951.3951h-2.3958v3.5972h2.9157v-.7994l.3835.3281v.8456h-3.6735v-3.9646l-3.3454,3.3084-1.9018,1.5428,1.3849-1.7611,2.4527-3.0868h-3.0684l.3682-.3928h3.2832s-.0329-3.3959-.0329-3.3856Z"/>
      <polygon class="cls-3" points="2.7141 2.2249 3.7205 3.9064 4.1746 3.9064 3.1805 2.2249 2.7141 2.2249"/>
    </g>
    <g id="Blanco">
      <polygon class="cls-4" points="10.2501 1.0998 8.6054 2.7036 5.8725 5.4856 3.7614 7.8667 1.9694 9.8632 3.0577 8.824 4.5142 7.3512 7.1817 4.5528 10.2501 1.0998"/>
    </g>
  </g></g>
  <g transform="translate(11.7740 2.0980) scale(1.5109) translate(-0.0000 -10.8820)"><g id="Nombre">
    <g>
      <rect class="cls-1" x=".0002" y="11.0181" width="15.3047" height="7.1855"/>
      <path d="M4.3838,12.9576c.019,0,.0308.0029.0361.0088.0054.0049.0146.0107.0283.0156-.0137.0137-.0249.0264-.0342.04s-.0249.0059-.0459-.0244c-.0029,0-.0044-.001-.0044-.0039,0-.002-.001-.0049-.0039-.0078-.0264.0137-.0537.0205-.082.0225-.0278.001-.0557,0-.084-.002-.0278-.0029-.0552-.0059-.082-.0088-.0264-.002-.0532-.001-.0796.0049-.04.0049-.0811.0078-.1221.0078-.0415,0-.0835.001-.126.0039-.04,0-.082.0117-.126.0361-.0444.0234-.085.0381-.1221.0439-.0083.0029-.02.0059-.0361.0098s-.0132.0195.0078.0459c-.0239.0215-.0356.0371-.0356.0479s-.0044.0312-.0122.0605c-.0024.0264-.0088.0527-.0181.0801-.0093.0264-.0205.0518-.0337.0752-.0054.0244-.0078.0508-.0063.0801s-.0127.0527-.042.0684c-.0054.0049-.0063.0107-.0039.0156.0024.0059.0059.0127.0103.0205.0039.0078.0063.0156.0078.0215.0015.0068-.002.0127-.0103.0186-.0132.0049-.0205.0176-.022.0381-.001.0195-.0044.0361-.0098.0498-.0029.0264-.0088.0488-.0181.0664-.0093.0166-.0259.0293-.0498.0371,0-.0107.0024-.0215.0078-.0332.0054-.0127-.0015-.0215-.02-.0264-.0107,0-.0215.0049-.0317.0156-.0054.0215-.0015.0332.0117.0342.0132.002.0239.0049.0322.0098-.0029.0215-.0049.043-.0063.0645-.001.0215-.0044.0439-.0098.0684-.0107-.0029-.0215-.0049-.0322-.0049s-.0225-.001-.0356-.0039c0,.0293-.0068.0586-.02.0889-.0137.0293-.0176.0635-.0122.1035.0161-.0029.0308-.0039.0439-.0039s.0293-.0029.0483-.0078c-.0137.0342-.0249.0664-.0342.0957s-.0181.0615-.0259.0957c-.0215-.0156-.041-.0303-.0581-.0439-.0176-.0127-.0356-.0117-.0542.0039-.0078.0059-.0137.0107-.0181.0146-.0039.0039-.0083.0088-.0137.0137.0054.0049.0112.0107.0181.0156.0063.0059.0112.0107.0137.0166.0054.0049.0107.0088.0161.0098s.0107.0029.0161.0059c-.0054.0244-.0122.0469-.02.0684-.0083.0215-.0146.042-.02.0635-.0083.0215-.0161.042-.0239.0625-.0083.0195-.0146.04-.02.0615-.019,0-.0283.0059-.0283.0166-.0132.0234-.0254.0498-.0356.0781-.0107.0273-.02.0615-.0283.1016-.0054-.0244-.0083-.041-.0098-.0498-.0015-.0098-.0034-.0195-.0059-.0303-.0298.0244-.0503.0449-.062.0625-.0122.0166-.0249.0508-.0381.1016-.0083-.0215-.0137-.0439-.0161-.0684-.0054.0186-.0151.0342-.0298.0439-.0151.0107-.0142.0293.002.0566-.0137.0127-.0249.0273-.0342.042s-.0195.0283-.0298.042c-.0054.0186-.0127.0361-.022.0518-.0098.0156-.0156.0332-.0181.0518-.0054.0293-.0181.0518-.0381.0664s-.0381.0312-.0542.0498c0,.0029-.002.0059-.0059.0098s-.0088.0088-.0142.0146c-.021.0107-.042.0215-.062.0312-.02.0107-.0405.0234-.062.0361-.0054,0-.0093.002-.0117.0039-.0029.0029-.0068.0029-.0122,0-.0024,0-.0005,0,.0059-.002.0068-.001.0142-.002.0225-.002h.0317c-.0078.0029-.0078.0088,0,.0166h.0078v.0117c-.0054.0029-.0098.0039-.0137.0039s-.0088.0029-.0142.0078c-.0186.0107-.0361.0215-.0518.0322-.0161.0107-.0361.0156-.0601.0156-.0054-.002-.0068-.0049-.0039-.0078.0078-.0107.0156-.0215.0239-.0342.0078-.0117.0117-.0244.0117-.0371.0054-.0107.0068-.0195.0039-.0244.0269-.0508.0522-.1016.0762-.1523s.0493-.0996.0762-.1475c0-.0059.002-.0098.0059-.0127.0039-.002.0059-.0059.0059-.0117.0137-.0557.0273-.1123.042-.1699s.0273-.1162.0381-.1777c.0132-.0645.0303-.126.0503-.1865.02-.0596.0312-.124.0337-.1934.04-.0674.0635-.1406.0703-.2207.0063-.0801.019-.1582.0376-.2354.0029-.0186.0049-.0391.0063-.0605.001-.0215.0137-.0361.0381-.0439-.0161-.042-.0156-.0781.002-.1074.0171-.0293.0273-.0625.0298-.1006-.0054-.042-.0034-.082.0059-.1182.0093-.0352.021-.0723.0342-.1094.0024-.0137.0039-.0244.0039-.0342s.0015-.0205.0039-.0342c-.0425.0059-.0825.0078-.1196.0078-.0376,0-.0747.0039-.1123.0127-.0371.0049-.0718.0059-.104.0039-.0317-.0029-.0664-.002-.104.0039-.0107,0-.019.0049-.0259.0156s-.0166.0176-.0298.0205c-.0083.002-.019.001-.0322-.0039-.0132-.0059-.0254-.0088-.0361-.0088-.0132.0029-.0259.0078-.0381.0146-.0117.0068-.0244.0127-.0376.0176-.0376.0078-.0723.0186-.104.0303-.0322.0117-.0669.0166-.104.0137-.0483-.002-.0854.0098-.1123.0361-.0264.0264-.0439.0615-.0518.1045-.0083.0771-.0259.1621-.0542.2559-.0278.0928-.0474.1768-.0581.252.0029.0156.0029.0322,0,.0479-.0024.0156-.0054.0322-.0078.0479-.0376.0107-.0581.0225-.062.0361s.0088.0449.0381.0957c-.0215.0215-.0396.0439-.0542.0664s-.022.0508-.022.0859c0,.0186-.0034.0342-.0098.0479-.0068.0137-.0117.0332-.0142.0596,0-.0049.0078-.0059.0239-.0039l-.0239.1562c-.0078-.0049-.0151-.0117-.022-.0176-.0068-.0068-.0151-.0127-.0259-.0186-.0029,0-.0054.0029-.0083.0078-.0024.0059-.0063.0098-.0117.0127.0054.0078.0098.0166.0137.0254.0044.0098.0127.0225.0264.0381,0,.0107-.0034.0264-.0103.0459-.0063.0205-.0073.0381-.002.0547.0029.0127.0015.0234-.0039.0312-.0054.0088-.0107.0156-.0161.0225s-.0093.0137-.0117.0225c-.0029.0078-.0015.0186.0039.0312.0024.0078-.0039.0137-.02.0166-.0161.002-.0308-.0039-.0439-.0205-.0029.0137-.0054.0264-.0083.0381-.0024.0117-.0063.0244-.0117.0381-.0054-.0049-.0122-.0107-.02-.0156-.0083-.0059-.0176-.0137-.0283-.0244.0054.0137.0068.0254.0044.0361-.0029.0107-.0015.0186.0039.0234.0078.0059.0171.0117.0278.0186s.0229.0137.0361.0215c.0024.0059.0054.0127.0078.0205.0029.0078.0029.0107,0,.0078-.0239.0215-.0356.0479-.0356.0801s-.0068.0625-.02.0918c-.0161-.0635-.0317-.126-.0464-.1855-.0146-.0605-.0283-.1211-.042-.1826-.0054-.0293-.0117-.0586-.02-.0879-.0078-.0293-.0146-.0586-.02-.0879-.0024-.0293-.002-.0586.0024-.0879.0039-.0293.002-.0586-.0063-.0879-.0078-.0645-.0112-.1279-.0098-.1924.001-.0635.0059-.126.0137-.1875.0107-.0615.0137-.123.0083-.1865-.0054-.0625,0-.124.0161-.1855l.0039.0039c0,.0029.0015.0039.0039.0039.0078-.0078.0107-.0137.0078-.0156.0029,0,.0034-.001.002-.002-.001-.002-.0044-.001-.0098.002.0024-.0029.0024-.0039,0-.0039s-.0039.001-.0039.0039c-.0083,0-.0156-.002-.022-.0059-.0068-.0049-.0088-.0078-.0063-.0107.0054-.0293.0127-.0674.0225-.1152.0093-.0488.0166-.0869.022-.1162-.0215.0049-.0396.0107-.0542.0176s-.0298.0098-.0459.0098c-.0107,0-.0239-.0039-.04-.0117s-.0376-.0146-.064-.0195l.04-.0127c.0132-.0049.0239-.0059.0317-.0039-.0239-.04-.0479-.0479-.0718-.0234-.0137.0127-.0283.0195-.0439.0176-.0161-.001-.0337-.0049-.0522-.0098-.0107,0-.0244.001-.042.0039-.0171.0029-.0327.0029-.0459,0-.0269-.0029-.0527-.0117-.0781-.0283-.0254-.0156-.0513-.0312-.0781-.0479-.0239-.0156-.0464-.0322-.0679-.0498s-.0439-.0312-.0679-.042c-.0293-.0137-.0532-.0283-.0723-.0439-.0186-.0156-.0386-.0352-.0596-.0557-.04-.0508-.082-.0889-.126-.1143-.0444-.0254-.085-.0625-.1221-.1104-.0054-.0049-.0068-.0137-.0039-.0254.0024-.0127.0049-.0215.0078-.0264-.0161-.0137-.0308-.0264-.0439-.04-.0137-.0137-.0254-.0283-.0361-.0439-.0347-.0508-.0669-.1025-.0962-.1543s-.0586-.1045-.0879-.1582c-.0132-.0342-.0264-.0693-.04-.1035-.0132-.0342-.0293-.0703-.0479-.1084.0107.0059.0186.0088.0239.0107.0054.001.0132.0059.0239.0137.1226.1201.252.2021.3882.248.0132.0049.0259.0117.0381.0176.0117.0068.0259.0146.042.0225.021.0137.0459.0225.0737.0283.0283.0049.0542.0098.0781.0156.0132.0049.0293.0068.0479.0039.019-.0029.0308-.001.0361.0039.0161.0215.0327.0371.0498.0459.0176.0098.0347.0156.0522.0186.0171.002.0352.002.0542,0,.0186-.0029.0371-.0039.0557-.0039.0879-.0059.1768-.0029.2661.0098.0894.0117.1768.0068.2622-.0146.0293-.0049.0518-.0127.0679-.0234s.0264-.0303.0317-.0605c.0054-.0342.0127-.0781.022-.1318.0098-.0527.0181-.0967.0264-.1318,0-.0293.0078-.0527.0239-.0723.0293-.0312.0493-.0693.0601-.1113.0107-.043.0239-.0869.04-.1318.0054-.0215.0093-.0459.0117-.0723.0029-.0264.0068-.0518.0122-.0762.0024-.0156.0034-.0322.002-.0479-.0015-.0166-.0059-.0352-.0142-.0566-.0078-.0264-.0132-.0537-.0161-.084-.0024-.0293-.0024-.0566,0-.084.0054-.0479.0122-.0957.02-.1436.0083-.0479.0146-.0996.02-.1562.0137.0137.021.0225.022.0283.0015.0049.0049.0137.0103.0234.0132-.0156.02-.0312.02-.0479,0-.0156-.002-.0332-.0059-.0518-.0044-.0186-.0088-.0361-.0142-.0537s-.0068-.0371-.0039-.0586c.0664.0967.1343.1855.2041.2666.0688.0811.1318.1709.188.2695.0425.0244.0757.0586.0996.1025.0244.0439.0508.0869.0801.1299.0239.04.0361.0811.0361.124s.0024.0869.0078.1318c.0054.0215.002.043-.0098.0664-.0122.0225-.0249.042-.0381.0576-.0215.0215-.0366.0557-.0459.1016-.0093.0469-.0073.0928.0059.1387-.0132-.0166-.0239-.0283-.0317-.0361-.0083-.0078-.0161-.0166-.0244-.0244l-.0156.0566c0-.0059-.0068-.0088-.02-.0088-.0029,0-.0054.001-.0083.002-.0024.002-.0063.0029-.0117.0029.0054.0049.0083.0088.0098.0117s.0059.0068.0142.0117c0,.0029.0024.0039.0078.0039s.0107.002.0161.0039c-.0132.0293-.0239.0586-.0322.0859-.0078.0283-.0186.0605-.0317.0986.0132-.0029.0239-.0059.0317-.0078.0083-.0029.0146-.0059.02-.0088.0107.0029.02.0059.0283.0088.0078.002.0161.0049.0239.0078.0293.0107.0601.0195.0918.0254.0322.0068.0669.0088.104.0059.0293.0029.0576,0,.084-.0078.0269-.0078.0547-.0127.084-.0156s.0566-.002.082.002.0542.0088.0859.0137c.019-.002.0391-.0088.0601-.0195.0215-.0107.043-.0176.064-.0205.0054,0,.0122-.0039.02-.0137.0083-.0098.0107-.0156.0083-.0176-.0107-.0166-.0146-.0322-.0122-.0488.0029-.0156.0068-.0312.0122-.0459s.0107-.0293.0161-.0459c.0049-.0156.0063-.0322.0039-.0479-.0054-.0371-.0029-.0742.0078-.1104.0107-.0352.02-.0723.0278-.1094l.0361-.2041c0-.0371.0034-.0742.0103-.1104.0063-.0361.0127-.0723.0181-.1094,0-.0186-.001-.0361-.0024-.0527-.001-.0156-.0005-.0332.0024-.0518-.0083-.0215-.0142-.0439-.0181-.0684-.0044-.0234.0029-.0449.022-.0635-.0054-.043-.0063-.0859-.002-.1299.0039-.0439-.0073-.0859-.0342-.126-.0132-.0186-.0234-.0391-.0298-.0605-.0068-.0205-.0127-.042-.0181-.0635s-.0127-.043-.022-.0645c-.0098-.0215-.0234-.041-.042-.0596-.0322-.0293-.0596-.0684-.082-.1162-.0229-.0479-.0449-.0947-.0659-.1396.0396.0293.0825.0498.1279.0615.0449.0117.0864.0371.124.0742.0293.0244.0586.0449.0879.0635.0293.0195.0586.0391.0879.0605.0347.0234.0688.043.1021.0576s.0635.0342.0898.0586c.0161.0127.022.0215.0181.0254s.002.0049.0181.002c.0161-.0049.0288,0,.0381.0146s.019.0215.0298.0215c.0322.0244.0649.0479.0981.0723s.0645.0303.0938.0195c.0347.0303.0654.0635.0923.1006.0264.0371.0586.0664.0962.0879,0,.0264.0093.0459.0278.0576.0186.0127.0308.0293.0361.0508.0024.0186.0049.0371.0078.0557.0024.0186.0054.0391.0078.0596-.0024,0-.0044.001-.0059.002-.0015.002-.0034.002-.0059.002h-.0083c-.0078.0889-.0454.1455-.1118.1729-.0054.0049-.0093.0107-.0122.0176-.0024.0068-.0078.0117-.0156.0137-.0054.0029-.0127.0039-.022.0039h-.0264c.019.0195.021.0322.0063.04-.0146.0088-.0234.0195-.0264.0322-.0024.0215-.0039.0439-.0039.0684,0,.0234-.0054.0469-.0161.0674-.0054.0137-.0078.0283-.0078.0439,0,.0166-.0005.0322-.002.0488-.0015.0156-.0059.0293-.0142.042-.0078.0117-.0225.0186-.0439.0215-.0054,0-.0093.0059-.0117.0186-.0029.0117-.0044.0234-.0044.0332,0,.0273-.0054.0469-.0156.0605-.0107.0137-.0269.0254-.0483.0361l.0361.0713c-.0078.0029-.0151.0049-.022.0049s-.0127.001-.0181.0039c-.0132.0312-.0254.0635-.0361.0957-.0103.0322-.021.0635-.0317.0957.0054.0029.0098.0059.0142.0098.0039.0049.0073.0068.0098.0068.0293.0049.0566.0088.082.0098s.0527.0049.082.0098c.0239.0059.0483.0137.0737.0244s.0518.0088.0781-.0039c.0054-.0059.0132-.0059.0239,0,.0107.0049.0215.0088.0322.0117.0508.0186.0986.0303.144.0342s.0903.0059.1357.0059c.0239-.0029.0493.0029.0762.0156.0269.0137.0508.0176.0718.0117ZM1.3198,13.4419c.0054.0029.0107.0039.0161.0039s.0107.002.0161.0039c.0054-.0186.0039-.0273-.0039-.0273-.0161,0-.0283-.002-.0361-.0039.0054.0049.0073.0098.0059.0156-.0015.0049-.0005.0078.002.0078ZM1.4282,14.6539c.0024,0,.0044-.001.0059-.002s.0034-.002.0059-.002c-.0024-.0029-.0059-.0049-.0098-.0078-.0044-.0029-.0063-.0059-.0063-.0078-.0024,0-.0039.001-.0039.0039s-.0015.0039-.0039.0039l.0122.0117ZM1.5762,14.7339l.0156.0039.0122-.0557-.0122-.0039-.0156.0557ZM1.6641,14.4703c0,.002-.0093-.0098-.0278-.0361-.0029.0137-.0063.0234-.0103.0303-.0039.0059-.0073.0146-.0098.0254.0024.0059.0063.0107.0117.0166.0054.0049.0093.0107.0122.0156.0156.0107.0239-.0068.0239-.0518ZM1.644,14.1304c.0078.0234.0132.0449.0161.0635.0024.0186.0063.043.0117.0723l.0239-.1279c-.0132-.0029-.0229-.0049-.0298-.0059-.0068-.002-.0142-.002-.022-.002ZM1.6479,14.2701v.0283c0,.0107.0024.0205.0078.0312.0107-.0234.0146-.041.0122-.0518s-.0093-.0137-.02-.0078ZM1.748,12.4302c-.0029-.0059-.002-.0186.002-.04s.0059-.0352.0059-.04c-.0054,0-.0107.0029-.0156.0078,0,.0029-.001.0156-.0024.0381-.001.0225-.0005.0371.0024.042l.0078-.0078ZM1.7559,13.8384c.0054-.0029.0122-.0039.02-.0039-.0054-.0059-.0073-.0088-.0059-.0107.0015-.001.0005-.0029-.002-.0059-.0029.0029-.0054.0039-.0083.0039-.0024,0-.0063.002-.0117.0039.0078.0088.0107.0127.0078.0127ZM2.1279,13.2857c.0029-.002.0054-.0039.0083-.0039.0024,0,.0039-.002.0039-.0078v-.0039c0-.0029-.0029-.0068-.0083-.0117,0,.002-.001.0039-.0039.0039-.0024.0049-.0034.0088-.002.0117s.002.0068.002.0117ZM2.416,15.2896c.0078,0,.0093-.002.0039-.0078l-.0117-.0117c.0024,0-.0015.0029-.0122.0078.0054.0029.0093.0059.0122.0078.0024.0029.0049.0039.0078.0039ZM3.1519,14.2339c-.0054-.0029-.0107-.0049-.0156-.0078-.0054-.0029-.0107-.0059-.0161-.0078-.0029,0-.0049.002-.0063.0059-.001.0039-.0044.0059-.0098.0059.0161.0107.0278.0176.0361.0205v-.0049c0-.002.0039-.0059.0117-.0117ZM3.2998,13.7505c.0029,0,.0044-.001.0044-.0029,0-.001.001-.002.0039-.002-.0054-.0078-.0068-.0117-.0039-.0117-.0107,0-.019.002-.0244.0039.0029.0029.0054.0049.0083.0059.0024.002.0054.0039.0078.0068h.0039Z"/>
      <path d="M4.5,13.9898c-.0215.0752-.0562.1387-.104.1904s-.0879.1055-.1201.1621c-.0347.0557-.0767.1074-.126.1533-.0493.0469-.1006.0957-.1538.1465-.0083-.0059-.0161-.0107-.0239-.0156-.0083-.0059-.0176-.0098-.0283-.0127-.0562-.0049-.0991-.0234-.1299-.0537s-.0542-.0713-.0698-.1221c0-.0264-.0107-.0508-.0322-.0723-.0186-.0234-.0298-.0488-.0342-.0762-.0039-.0264-.0029-.0557.0024-.0879.0024-.0264.0059-.0527.0098-.0781s.0005-.0518-.0098-.0811c-.0107-.0215-.0127-.0469-.0063-.0742.0068-.0283.0073-.0566.002-.0859s-.0063-.0625-.0039-.0986c.0029-.0361.0146-.0693.0361-.1016.0054-.0078.0088-.0166.0098-.0264.0015-.0088.002-.0176.002-.0254.0054-.0674.0166-.1328.0342-.1963.0176-.0645.0352-.1279.0542-.1924.0186-.0527.0293-.1074.0317-.1641.0029-.0557.0068-.1104.0122-.1641.0054-.04.0093-.0791.0117-.1191.0029-.04,0-.0801-.0078-.1201-.0054-.0215-.0112-.042-.0181-.0605s-.0205-.041-.042-.0674c.0322.0127.0605.0166.0859.0098s.0488-.001.0703.0176c.0049.0059.0137.0088.0259.0107.0117.001.0234,0,.0337-.0029.0508-.0049.0981-.002.1421.0107.0439.0117.0889.0254.1343.042.0347.0127.063.0312.0859.0557.0225.0244.0459.0469.0698.0684.0083.0049.0146.0186.02.04s.0068.042.0039.0635c-.0054.0664-.021.1309-.0479.1924s-.0479.124-.064.1875c-.0107.0352-.0259.0664-.0459.0947-.02.0273-.0356.0576-.0459.0898-.0054.0293-.0122.0596-.02.0918-.0083.0322-.0161.0625-.0244.0918-.0024.0059-.0063.0107-.0117.0166-.0054.0049-.0093.0098-.0122.0156-.0024.0107-.0073.0205-.0137.0303-.0068.0088-.0127.0186-.0181.0273-.0054.0098-.0088.0195-.0103.0303s.0049.0215.0181.0322c-.0078.0234-.0161.0479-.0239.0723-.0078.0234-.0186.0459-.0322.0674-.0054.0137-.0146.0264-.0278.0381s-.0186.0205-.0161.0264c.0107.0127.0156.0254.0142.0361-.0015.0098-.0049.0205-.0098.0312-.0054.0107-.0107.0225-.0161.0342s-.0083.0244-.0083.0381c.0029.0371.001.0762-.0059.1162s-.0127.0781-.0181.1162c.0483-.0107.0903-.0322.126-.0625.0361-.0303.0752-.0566.1182-.0781.0454-.0234.0835-.0547.1138-.0938.0308-.0391.0688-.0771.1143-.1143ZM4.8037,12.0816c-.0825.083-.1738.1426-.2739.1787-.0996.0361-.2007.0469-.3018.0342-.0215-.0166-.042-.0254-.062-.0264s-.04.001-.0601.0078-.0405.0156-.062.0264-.0415.0186-.0601.0234c-.0371.0107-.0728.0156-.106.0146-.0332-.002-.0688-.0059-.106-.0146.0132-.002.0332-.0039.0601-.0039.1011-.0049.1807-.0361.2378-.0938.0576-.0576.0952-.1289.1143-.2139,0-.0137.0024-.0244.0078-.0342s.0107-.0205.0161-.0342c.0024-.0127.0063-.0283.0117-.0459s.0054-.0312,0-.042c-.0103-.0215-.0146-.0381-.0117-.0518.0024-.0137.0117-.0312.0278-.0518.0132-.0273.0132-.0518,0-.0742s-.0215-.0479-.0239-.0742c0-.0049-.0015-.0117-.0039-.0176-.0029-.0068-.0054-.0127-.0083-.0186.0347-.0186.062-.0215.082-.0078s.0381.0264.0542.04c.0293.0244.0615.043.0962.0557.0347.0137.0718.0234.1118.0283.0269.0049.0527.0156.0781.0303s.0483.0312.0698.0498c.0371.0264.0713.0537.1021.0801s.062.0518.0938.0762c.0215.0156.0449.0254.0703.0273.0254.0029.0498.0029.0737,0-.021.0215-.043.0332-.0659.0361-.0225.0029-.0444.0098-.0659.0205-.0054.002-.0107.0059-.0161.0098s-.0117.0088-.02.0137c-.0107.0029-.022.0029-.0337,0-.0122-.002-.021.0068-.0264.0283-.0024,0-.0093.0029-.02.0078.0054.0029.0122.0078.02.0156ZM4.1201,13.7623c0-.0029.0005-.0049.002-.0059.001-.002.002-.0039.002-.0059h-.0522c0,.002-.0005.0039-.002.0059-.0015.001-.002.0029-.002.0059h.0522ZM4.104,13.8218l-.0083.0039c-.0024,0-.0039.002-.0039.0039,0,.0029.0029.0098.0083.0205,0-.0029.001-.0039.0039-.0039l.0039-.0039c-.0054-.0107-.0068-.0176-.0039-.0205Z"/>
      <path d="M5.7319,12.1099c.0024.0166.002.0293-.0024.04-.0039.0107-.0176.0156-.042.0156-.021.0029-.0322.0068-.0337.0127-.0015.0049.0073.0186.0259.04v.0635c-.0054.0059-.0112.0078-.0181.0059-.0063-.001-.0127-.0029-.0181-.0059-.0054-.002-.0107-.0039-.0156-.0039-.0054,0-.0098.0059-.0122.0166-.0029.0264-.0142.0439-.0342.0518s-.0327.0234-.0376.0479c-.0054.0215-.0176.04-.0361.0557-.0186.0166-.0347.0332-.0479.0527-.0137.0205-.0254.041-.0361.0596s-.0229.0371-.0361.0557c-.0078.0166-.0215.0322-.04.0479-.0269.0244-.04.0547-.04.0928,0,.0234-.0059.0449-.0181.0635-.0117.0186-.0259.0361-.042.0518-.0054.0029-.0112.002-.0181-.0039-.0063-.0049-.0137-.0088-.022-.0117.0054.0215.0093.0361.0122.0439.0024.0078.002.0166-.002.0244s-.0073.0156-.0103.0234c-.0024.0078-.0024.0166,0,.0244.0029.0078.0107.0146.0244.0195-.0215.0137-.0347.0332-.04.0586s-.0146.0449-.0283.0576c-.0293.0215-.0483.0508-.0576.0879-.0098.0381-.0288.0674-.0581.0879-.0054.0029-.0068.0088-.0039.0166.0024.0078.0039.0176.0039.0273v-.0039c-.0083,0-.0146.0029-.02.0088.0024,0,.0039.0049.0039.0156.0078-.0078.0132-.0146.0161-.0205.0371-.0098.0713-.0254.1021-.0459.0303-.0195.0605-.042.0898-.0654.0854-.0693.1699-.1387.2539-.2061.084-.0684.1636-.1436.2383-.2266.0132-.0127.021-.0225.0239-.0273.0024-.0029.0103-.0127.0239-.0283.04-.0479.064-.0811.0718-.0977.0083-.0176.0127-.0332.0142-.0479s.0044-.0322.0098-.0527c.0054-.0195.0269-.0566.0645-.1094.0264-.0381.0552-.0732.0859-.1064.0303-.0332.0566-.0713.0776-.1143.0083-.0107.0215-.0205.04-.0312s.0161-.0283-.0078-.0527c.0132-.0186.0259-.0352.0381-.0498.0117-.0146.0234-.0312.0337-.0498.0137-.0322.0229-.0684.0283-.1084.0024-.0205.0039-.04.0039-.0576s.0039-.0371.0122-.0576c.0186.0371.0366.0752.0537.1152.0176.04.0342.0801.0503.1201.0186.043.0356.085.0518.126.0161.042.0278.084.0361.126.0054.0381.0083.0771.0098.1182s-.0088.085-.0298.1299h.0518c0,.0371-.0073.0732-.022.1064s-.0166.0684-.0059.1055v.0127c-.0347.0264-.0566.0586-.0659.0957s-.0234.0742-.042.1123c-.0347.0586-.0776.1182-.1279.1797-.0137.0186-.0288.0361-.0464.0537-.0171.0176-.0405.0244-.0698.0225-.0078-.0029-.0166.002-.0259.0137s-.0195.0234-.0303.0342c-.0186.0215-.0293.0342-.0317.0381-.0029.0039-.0049.0049-.0059.002-.0015-.0029-.0054-.0049-.0122-.0059-.0068-.002-.0234.0029-.0498.0137-.0161.0078-.0244.0098-.0244.0059s.0029-.0078.0083-.0117.0083-.0059.0098-.0039c.0015.001-.0034.0088-.0137.0215-.0083.0088-.0176.0156-.0283.0225s-.0225.0117-.0356.0137c-.019.0029-.0298.0029-.0322,0-.0029-.002-.0034-.0059-.002-.0098s.002-.0049.002-.0039-.0054.0068-.0161.0176c-.04.0381-.0771.0762-.1118.1162s-.0801.0684-.1362.084c-.0078.0029-.0137.0107-.0181.0244-.0039.0127-.0083.0254-.0137.0361.0161.0293.0337.0557.0537.0791.02.0244.0415.0488.064.0723.0229.0244.0444.0488.0645.0742.0195.0254.0366.0537.0498.0859.0078.0156.0215.0322.04.0479.0508.043.0952.0898.1338.1406.0386.0498.0752.1025.1104.1553.0503.0801.1084.1533.1738.2207.0654.0664.1313.1338.1978.2031.0615.0273.1182.0596.1704.0986.0518.0381.1123.0635.1816.0742.0454.04.0962.0605.1523.0615.0557.001.1104-.0029.1641-.0137.0664-.0107.1328-.0234.1982-.0381s.1279-.04.1895-.0742c.0059-.0049.0127-.0098.0225-.0117.0088-.0029.0234-.0068.042-.0127-.0244.0381-.0498.0586-.0781.0645-.0283.0049-.0537.0146-.0781.0283-.0264.0156-.0557.0273-.0859.0332-.0303.0068-.0605.0137-.0898.0205s-.0586.0156-.0879.0264c-.0293.0098-.0566.0264-.0806.0479-.0024.002-.0088.001-.0181-.0039-.0093-.0059-.0181-.0098-.0259-.0127-.0132-.0049-.0269-.0088-.04-.0117s-.0269.0098-.04.0361c-.0107.0215-.0298.0303-.0581.0283-.0278-.0029-.0522-.0127-.0737-.0283-.0029-.0029-.0083-.0039-.0161-.0039,0,.0049-.0005.0107-.002.0176s-.002.0127-.002.0186c-.0054.002-.0093.0049-.0122.0078-.0024.0029-.0054.0039-.0078.0039-.0776.0029-.1538-.0039-.23-.0195-.0762-.0166-.1499-.0391-.2222-.0684-.0161-.0059-.0317-.0098-.0479-.0117-.0161-.0029-.0322-.0127-.0479-.0283-.0137-.0137-.0298-.0234-.0483-.0303s-.0371-.0156-.0557-.0254c-.019-.0137-.0356-.0273-.0503-.04-.0146-.0137-.0312-.0244-.0498-.0322-.0776-.0371-.144-.0859-.2002-.1445-.0557-.0586-.1133-.1172-.1719-.1758-.0239-.0234-.0454-.0508-.064-.0801s-.0415-.0527-.0679-.0713c-.0537-.043-.0977-.0928-.1323-.1484s-.0747-.1084-.1196-.1562c-.0347-.0371-.0649-.0771-.0903-.1201-.0254-.042-.0498-.085-.0737-.1279-.0083-.0127-.0181-.0254-.0303-.0381-.0117-.0117-.0244-.0186-.0381-.0215-.0132,0-.022-.0029-.0259-.0078-.0039-.0059-.0059-.0127-.0059-.0205s-.001-.0156-.002-.0234c-.0015-.0088-.0059-.0166-.0142-.0244h-.1118v.0361c.0107,0,.021-.001.0317-.002.0107-.002.0229-.002.0361-.002,0-.0029.0015-.0029.0039,0,.0029.0029.0039.0049.0039.0078-.0054.0186-.0112.0371-.0176.0557-.0068.0186-.0088.0361-.0063.0527.0029.0186-.0015.0332-.0117.0439-.0107.0098-.0122.0254-.0044.0439.0054.0127.0049.0293-.002.0498-.0063.0195-.0098.0381-.0098.0537,0,.0215-.0049.0391-.0142.0537s-.0288.0361-.0581.0625c-.0024-.0029-.001-.0127.0044-.0303s.0117-.0391.02-.0654c-.0376.0186-.0547.0381-.0522.0576.0024.0205.0122.0322.0278.0381.0107-.0059.0215-.0039.0322.0039s.0093.0225-.0039.0439c-.0454.0957-.0776.1973-.0962.3037-.0078.04-.0137.082-.0181.126-.0039.0439-.019.085-.0459.1221-.0107.0186-.0146.042-.0117.0684.0024.0264.0039.0518.0039.0762,0,.0635-.0215.1309-.064.2002-.0083-.0166-.0161-.0293-.0244-.04-.0078-.0107-.0132-.0215-.0156-.0322-.0029-.0557-.0029-.1094,0-.1602,0-.0215-.0015-.042-.0039-.0615-.0029-.0205-.0107-.04-.0244-.0586-.0054-.0137-.0098-.0254-.0137-.0361s-.001-.0225.0098-.0361c.0054-.0078.0083-.0205.0083-.0371,0-.0176-.0029-.0303-.0083-.0381-.021-.0293-.0312-.0596-.0298-.0908.0015-.0303.0059-.0576.0137-.082.0137-.0449.0195-.0889.0181-.1318-.0015-.042-.0044-.0859-.0098-.1318-.0054-.0215-.0073-.0449-.0059-.0723.001-.0264.0083-.0488.022-.0674.0132-.0186.019-.0371.0176-.0547-.001-.0166.001-.0352.0063-.0537.0186-.0693.0283-.1387.0298-.21.0015-.0703.0156-.1406.042-.21.0161-.04.0269-.082.0322-.1279.0054-.0449.0146-.0908.0278-.1357.0161-.0586.0278-.1172.0361-.1758.0078-.0586.021-.1162.04-.1729.0054-.0205.0083-.0439.0098-.0674.0015-.0244.0034-.0479.0059-.0723.0054-.043.0171-.082.0342-.1182.0176-.0361.0312-.0742.042-.1143,0-.002.0015-.0039.0039-.0039l.0044-.0039c-.0029-.0527.0044-.1025.022-.1494.0171-.0469.0283-.0947.0337-.1426.0029-.0215.0083-.041.0161-.0596s.0146-.0371.02-.0557c.0054-.0166.0132-.0322.0239-.0469s.0132-.0273.0078-.0381c-.0078-.0234-.0029-.0381.0142-.0439.0176-.0049.0273-.0156.0303-.0312.0024-.0322.0103-.0645.0239-.0967.0103-.0312.0181-.0576.022-.0781.0039-.0195.0054-.0381.0039-.0557s-.0054-.0352-.0122-.0537c-.0063-.0186-.0176-.043-.0337-.0723-.0107-.0186-.0142-.0361-.0103-.0537s-.0005-.0352-.0137-.0537c-.0347-.0381-.0669-.0771-.0962-.1182-.0293-.042-.0693-.0732-.1201-.0947-.0132-.0049-.0239-.0137-.0317-.0254-.0083-.0117-.019-.0244-.0322-.0381.0425-.0059.0747.0029.0962.0264.021.0225.0479.04.0801.0537.0024.0029.0024,0,0-.0078l-.0122.0117c.0054.0029.0088.0049.0103.0078.001.0029.0029.0039.0059.0039.0078,0,.0063-.0049-.0039-.0156,0-.0078.0024-.0156.0078-.0225.0054-.0059.0107-.0098.0161-.0098.0293.0186.0591.0361.0898.0518.0308.0166.062.0322.0942.0479.0532.0273.1045.0566.1538.0889.0493.0312.0981.0654.146.0996.0186.0137.0366.0264.0542.04.0171.0137.0322.0264.0459.04.0293.0371.0586.0752.0879.1143.0293.0381.0586.0781.0879.1172.0054.0059.0112.0176.0181.0361s.0127.0381.0181.0586c.0054.0195.0093.0391.0122.0576.0024.0186.0024.0312,0,.0361-.0083.0137-.0171.0273-.0264.042s-.0205.0312-.0337.0498c.0103.0059.0205.0117.0298.0205.0093.0078.0195.0146.0303.0195ZM4.8716,13.7339c-.021.0137-.0337.0264-.0381.04-.0039.0137-.0166.0244-.0376.0322-.0137.0049-.019.0107-.0161.0176.0024.0068.0063.0137.0117.0205s.0107.0137.0161.0215.0054.0166,0,.0244c-.0024.0049-.0059.0088-.0098.0098s-.0063.0049-.0063.0098c-.0024.0215.001.0293.0103.0244.0093-.0059.0181-.0078.0259-.0078.0054-.0293.0112-.0596.0181-.0898.0068-.0312.0151-.0654.0259-.1025ZM4.9077,13.5298l.0078-.0078c-.0103-.0049-.0171-.0078-.02-.0078l-.0078.0078c.0107.0059.0176.0078.02.0078ZM4.9316,13.4097c-.0054,0-.0107.0029-.0161.0088.0029,0,.0044.001.0044.0039,0,.002.001.0039.0039.0039l.0161-.0078c0-.0107-.0029-.0137-.0083-.0088ZM4.9878,13.2701h-.0122v.0557h.0122v-.0557ZM5.0718,13.1304c-.0029-.0059-.0068-.0107-.0122-.0166l-.0117.0127c.0054.0049.0103.0088.0156.0117l-.0039-.0039c-.0078-.0078-.0186-.0146-.0317-.0205h.0239c-.0029-.0127-.0049-.0264-.0059-.04-.0015-.0127-.0034-.0264-.0063-.04-.0024,0-.0054.001-.0078.002-.0029.002-.0054.002-.0078.002,0,.0137.002.0273.0059.04.0039.0137.0181.0312.042.0527ZM5.0796,13.2056c-.0054-.0127-.0107-.0244-.0161-.0352-.0024.0049-.0054.0088-.0078.0117s-.0054.0068-.0078.0117c0,.0029.0024.0098.0078.0205.0107-.0059.0186-.0088.0239-.0088ZM5.0796,13.0865h.0122v-.0527h-.0122v.0527ZM6.0195,14.3062c-.0156-.0059-.0278-.0068-.0356-.0039-.0029,0-.0068.0049-.0122.0156.0078,0,.02.0029.0361.0078l.0117-.0195ZM6.1636,13.1177c0,.0059.0029.0107.0083.0166,0-.0029.001-.0039.0039-.0039.0024,0,.0039-.002.0039-.0039l-.0078-.0166c-.0054,0-.0083.0029-.0083.0078ZM6.7197,14.9625c-.0347-.0059-.0532-.0068-.0562-.0049-.0078.0029-.0146.0068-.02.0127-.0054.0049-.0107.0107-.0156.0156,0,.0059.001.0098.0039.0117,0,.0029.001.0059.0039.0088.0132,0,.0278-.0029.0439-.0088.0054-.002.0107-.0059.0161-.0117.0054-.0049.0132-.0137.0239-.0234Z"/>
      <path d="M7.0596,14.5337c.0059.0166.0078.0273.0059.0342-.001.0068-.0039.0098-.0078.0098-.0044,0-.0103,0-.0181-.002-.0083-.001-.0146,0-.02.002-.0483.0273-.0977.0381-.1479.0342-.0508-.0039-.1001-.0088-.1479-.0137-.0298-.0059-.0591-.0195-.0884-.042s-.0586-.0449-.0879-.0664c-.0215-.0156-.0405-.0332-.0581-.0518-.0171-.0186-.0352-.0371-.0537-.0557-.0161-.0137-.0254-.0273-.0283-.04-.0132-.0381-.022-.0742-.0259-.1104s-.022-.0674-.0537-.0938c.0049-.0537.0044-.1055-.0024-.1562-.0063-.0508.0024-.1016.0264-.1523.0078-.0127.0137-.0273.0181-.0439.0039-.0156.0098-.0312.0176-.0479.0269-.0527.0542-.1074.082-.1621.0283-.0547.062-.1074.1021-.1572.0508-.0645.1016-.127.1523-.1885.0503-.0615.105-.1211.1636-.1797.0107-.0107.0195-.0225.0264-.0342.0063-.0117.0137-.0244.022-.0381.0186-.0371.0264-.0605.0239-.0703-.0029-.0088-.0215-.0244-.0562-.0459-.0078-.0049-.0181-.0107-.0298-.0176-.0122-.0068-.0181-.0146-.0181-.0225-.0029-.0371-.0142-.0674-.0342-.0918s-.0391-.0508-.0576-.0801c-.0059-.0078-.0088-.0186-.0103-.0322-.0015-.0127-.0049-.0303-.0098-.0518.0293.0107.0542.0156.0757.0137.0215-.001.0439.001.0679.0068.083.0264.1641.0293.2446.0078.0693-.0215.1377-.0459.2061-.0723.0674-.0264.1367-.0547.2061-.084.0215-.0078.042-.0195.0615-.0361.0205-.0156.0391-.0322.0586-.0479.0234-.0215.0352-.0391.0352-.0518,0-.0137-.0117-.0361-.0352-.0684-.0059-.0049-.0088-.0098-.0107-.0137-.001-.0039-.0039-.0088-.0098-.0146v-.0195c.0293-.0049.0566-.0068.082-.0039s.0527.0137.082.0322c.0537.0371.1045.0762.1543.1172.0488.042.1006.0811.1533.1182.043.0293.082.0625.1162.0986.0352.0361.0664.0732.0967.1133.0371.0508.0615.1094.0732.1768.0127.0664.0049.125-.0215.1758-.0029.0049-.0059.0127-.0078.0215-.0029.0098-.0068.0166-.0127.0225-.042.0293-.0713.0654-.0879.1104-.0156.0439-.0322.0879-.0479.1338-.0049.0156-.0117.0312-.0195.0459-.0088.0146-.0146.0283-.0205.042-.0215.0371-.04.0742-.0557.1123-.0166.0371-.0283.0752-.0361.1152-.0029.0273-.0146.0391-.0361.0361,0,.0107-.001.0186-.0039.0244-.0029.0215-.0029.04,0,.0576s-.001.0342-.0117.0498c-.0059.0137-.0107.0293-.0146.0459-.0039.0176-.0088.0342-.0137.0508-.0029.0127-.0039.0273-.002.0439.001.0156.002.0312.002.0479,0,.0078.001.0166.002.0264.001.0088.001.0176-.002.0254-.0059.0244-.0146.0459-.0283.0664-.0127.0195-.0146.0439-.0039.0732.0107.0273.0146.0547.0117.085-.002.0293-.0039.0586-.0039.0879s-.002.0576-.0059.0859c-.0039.0273-.002.0547.0059.082.0137.04.0254.0801.0361.1221.0107.041.0225.0811.0361.1191.0137.0391.0303.0762.0518.1123s.0498.0684.084.0977c-.0078.0137-.0166.0176-.0273.0127-.0107-.0059-.0215-.0127-.0322-.0205s-.0205-.0117-.0283-.0117-.0156.0098-.0234.0283c-.0381-.0293-.0732-.0586-.1064-.0859-.0332-.0283-.0674-.0586-.1016-.0908-.0166-.0127-.0332-.0273-.0527-.0439-.0186-.0156-.0264-.0381-.0234-.0674.0029-.0059.001-.0107-.0039-.0166-.0059-.0049-.0107-.0107-.0166-.0156-.0508-.0293-.0801-.0664-.0879-.1123-.0078-.0449-.0146-.0918-.0195-.1396-.0029-.0107-.0059-.0205-.0078-.0303-.0029-.0088-.0068-.0195-.0127-.0293-.0293-.0566-.0635-.1152-.1035-.1768-.0078.0078-.0166.0166-.0264.0244-.0088.0078-.0176.0176-.0254.0283-.0088.0078-.0156.0166-.0225.0254-.0068.0098-.0156.0166-.0264.0225-.0107.0049-.0205.0078-.0312.0078s-.0059.0088.0156.0283c-.0215.0127-.043.0244-.0664.0352-.0225.0107-.0391.0244-.0498.04-.0127.0186-.0283.0352-.0459.0488-.0176.0127-.0283.0303-.0342.0518-.0078.0264-.04.0303-.0957.0117-.0078.0029-.0117.0059-.0117.0098s.001.0049.0039.002c.0049,0,.0186-.002.04-.0078-.0215-.0107-.0322-.0117-.0322-.0039.0186.0557-.0078.0732-.0801.0518l-.0122.0088c0,.002.0015.0049.0039.0078.0112-.0029.0239-.0068.0405-.0127-.0215-.0049-.0322-.0059-.0322-.0039ZM6.9473,13.7056h.0122c-.0029-.0049-.0039-.0088-.0039-.0117s-.0015-.0049-.0039-.0078c-.0029-.0029-.0054-.0029-.0083,0-.0024.0029-.0054.0039-.0078.0039.0186-.0107.0527-.0381.1021-.082s.1265-.1133.2319-.208.2539-.2314.4463-.4102c-.0293.0166-.0576.0312-.084.0459s-.0547.0293-.084.042c-.0137.0059-.0234.0137-.0303.0244s-.0127.0215-.0176.0322c-.0059.0107-.0127.0205-.0205.0293-.0078.0098-.0195.0146-.0361.0146-.0479.0479-.0957.0947-.1436.1416s-.0947.0967-.1396.1504c-.0215.0215-.04.043-.0547.0654-.0146.0234-.0361.041-.0659.0547.0024.0215.0005.0381-.0063.0498-.0063.0117-.0156.0234-.0278.0342-.0117.0107-.0239.0205-.0361.0293-.0117.0098-.022.0215-.0298.0342-.0054.0107-.0146.0137-.0278.0078-.0054-.002-.0107-.0059-.0161-.0117-.0161.0137-.0215.0244-.0161.0342s.0132.0176.0239.0264c0,.002-.0024.0059-.0078.0117-.0054.0049-.0107.0107-.0161.0156-.0215.0244-.0361.0508-.0439.0801s-.0269.0547-.0562.0762c-.0054.0049-.0088.0137-.0098.0264-.0015.0117.0005.0186.0059.0215.0132.0078.0195.0166.0181.0244s-.0039.0166-.0078.0254c-.0044.0098-.0078.0186-.0103.0264s.0015.0156.0122.0244c.0054,0,.0117,0,.02.002.0078.001.0156,0,.0239-.002.0693-.0195.1372-.042.2041-.0684s.1265-.0664.1802-.1201c.0557-.0557.1113-.1123.166-.1699s.1113-.1123.1699-.166c.0293-.0264.0508-.0547.0635-.084.0137-.0293.0234-.0625.0283-.0996.0078-.04.0166-.0791.0244-.1162s.0186-.0752.0312-.1123c.0059-.0156.0059-.0283,0-.0361-.0049-.0078-.0303.002-.0752.0303-.0459.0283-.1211.082-.2266.1621s-.2549.2002-.4502.3594ZM7.9521,14.5181l.0078-.0078c-.0059-.0059-.0107-.0078-.0166-.0078-.0049,0-.0078.002-.0078.0078.0059.0049.0107.0078.0166.0078ZM8.3438,12.9136l-.0078.0088c0,.0078.002.0146.0078.0195,0-.0029.001-.0039.0039-.0039l.0039-.0039c-.0049-.0107-.0078-.0176-.0078-.0205Z"/>
      <path d="M9.0547,13.5376c-.0049.0059-.0117.0107-.0195.0146s-.0137.0088-.0156.0137c-.0117.0586-.0488.1162-.1123.1719h.0713c-.002.0371-.0117.0684-.0273.0918-.0156.0244-.0352.0469-.0566.0684-.0098.0137-.0166.0244-.0195.0342-.002.0088.002.0215.0117.0381.0059.0127.002.0283-.0117.0459s-.0293.0283-.0479.0342c-.0166.0049-.0264.0107-.0322.0156-.002.0137.001.0244.0098.0322.0098.0078.0186.0166.0264.0254.0088.0098.0146.0195.0186.0303s-.001.0244-.0146.04l-.0283-.0557c-.002.0049-.0049.0088-.0078.0098-.002.001-.0039.0049-.0039.0098-.002.0273-.0029.0547-.002.082.002.0283-.0117.0518-.0371.0703-.0166.0137-.0215.0254-.0146.0361s.0146.0225.0264.0361c-.0215.0127-.0303.0293-.0264.0498.0039.0195.0049.04.002.0615s-.0068.04-.0117.0547c-.0059.0146-.0029.0322.0078.0537.0049.0137.0029.0176-.0059.0137-.0098-.0039-.0166-.0068-.0225-.0098-.0098-.0049-.0215-.0049-.0332.002-.0127.0068-.0234.0029-.0342-.0098,0,.0107-.0029.0293-.0078.0557-.0381-.0215-.0684-.0459-.0928-.0742-.0234-.0273-.0371-.0674-.04-.1172,0-.0059-.002-.0127-.0059-.0205s-.0088-.0176-.0137-.0283c-.0264-.0449-.043-.0918-.0479-.1416-.0059-.0498-.0098-.1006-.0117-.1543-.0059-.0693-.0029-.1367.0078-.2041.0107-.0664.0186-.1328.0234-.1992,0-.0215.0039-.041.0127-.0586.0078-.0166.0146-.0352.0195-.0537.0186-.0557.0352-.1123.0498-.168s.0225-.1133.0225-.1719c-.0029-.0137-.001-.0264.0059-.04s.0117-.0264.0137-.04c.0029-.0078.0059-.0176.0078-.0283.0029-.0107.002-.0186-.0039-.0234-.0215-.0215-.0293-.0449-.0254-.0703s.0029-.0498-.002-.0742c-.0029-.0156-.0068-.0303-.0127-.0439-.0049-.0137-.0107-.0283-.0156-.0439.0215-.0049.0381-.0156.0498-.0322.0127-.0156.0146-.0342.0059-.0557-.0186-.0449-.0342-.0908-.0479-.1357-.0127-.0459-.0322-.0898-.0557-.1318-.0215-.0381-.042-.0742-.0625-.1084-.0195-.0352-.0508-.0615-.0938-.0801-.0078-.0029-.0176-.0117-.0283-.0283l.0049-.0039c.0342.0029.0674.0049.0996.0059.0322.002.0654.0049.0996.0107.0723.0156.1426.0342.2119.0557s.1377.0518.2041.0918c.0293.0479.0615.0938.0967.1377.0342.0449.0586.0967.0713.1582.0049.0137.0088.0283.0127.0439.002.0166.0059.0312.0117.0439.0049.0215.0059.0459.002.0723s-.0078.0547-.0098.084c.0312-.0107.0586-.0283.0801-.0537s.041-.0527.0596-.082c.0078-.0166.0166-.0303.0283-.0439.0098-.0137.0215-.0264.0312-.04.0615-.0723.123-.1426.1846-.21.0615-.0684.1201-.1396.1758-.2139.0371-.0508.0703-.1045.0996-.1621s.0469-.1211.0527-.1904c.0078.0293.0166.0576.0273.084.0107.0273.0205.0547.0283.084,0,.0078-.0029.0166-.0078.0244-.0059.0078-.0078.0146-.0078.0195-.0029.0059-.0029.0127,0,.0205.002.0078.0059.0146.0117.0195.0322.0244.0508.04.0557.0459.0059.0068.0078.0195.0078.0381v.1963c0,.0244-.001.0498-.0039.0781-.002.0283.0029.0488.0166.0615.0107.0137.0146.0254.0137.0361s-.0049.0205-.0098.0303c-.0059.0098-.0107.0195-.0166.0303-.0049.0107-.0059.0215-.0039.0312.0029.0195.0117.0371.0264.0547s.0098.0391-.0137.0654c-.0137.0137-.0166.0352-.0088.0645.0088.0293.0068.0527-.0039.0723-.0107.0205-.0166.043-.0176.0654-.002.0225-.0039.0449-.0059.0664,0,.0049-.002.0127-.0039.0215-.0029.0098-.0068.0146-.0127.0146-.0156,0-.0254.0029-.0293.0098s-.0078.0156-.0107.0254c-.002.0107-.0039.0215-.0059.0303-.001.0098-.0059.0166-.0137.0225-.0156.0049-.0322.0107-.0479.0156-.0166.0059-.0352.0117-.0566.0205v.0996c-.0107,0-.0195.001-.0273.002s-.0137.001-.0166-.002c-.0078-.0137-.0166-.0205-.0254-.0225-.0098-.001-.0205-.002-.0322-.002s-.0225,0-.0322-.002c-.0088-.001-.0176-.0068-.0254-.0176-.0137-.0156-.0264-.0332-.0381-.0518-.0127-.0186-.0254-.0381-.0381-.0566-.0059-.0049-.0146-.0098-.0264-.0137s-.0205-.0088-.0264-.0137c-.0127-.0137-.0225-.0254-.0293-.0342-.0068-.0098-.0029-.0244.0137-.0459.0107-.0137.0205-.0312.0283-.0527.0078-.0205.0088-.0352.0039-.0439-.0078-.0098-.0117-.0205-.0098-.0312.001-.0107.0039-.0205.0078-.0303s.0059-.0195.0059-.0303-.0059-.0215-.0156-.0322c-.0293.0352-.0605.0684-.0918.1006-.0332.0322-.0586.0723-.0762.1201-.0078.0215-.0205.0391-.0371.0537-.0156.0146-.0293.0332-.043.0537-.0029.0059-.0078.0107-.0166.0146-.0078.0039-.0146.0088-.0225.0156-.0059.0068-.0098.0137-.0098.0225,0,.0078.0078.0186.0205.0312,0,.0029-.001.0059-.0039.0088l-.0088.0039c-.042-.0029-.0664.0088-.0732.0352-.0068.0273-.0127.0537-.0186.0801ZM8.7598,13.938h-.0127v.0879h.0127v-.0879ZM8.9072,13.7984l-.0088.0117c.0059.0049.0117.0078.0166.0078,0,.0029.0039,0,.0127-.0078-.0059,0-.0127-.0039-.0205-.0117ZM8.9277,14.0376c-.0059.0029-.0117.0068-.0166.0127-.0049-.0107-.0068-.0166-.0039-.0166.0049-.0049.0117-.0078.0205-.0078v.0117ZM8.9551,13.9537c-.0059.0186-.0088.0332-.0098.042-.002.0098-.0039.0195-.0059.0303-.0029-.0049-.0059-.0117-.0078-.0195-.0039-.0088-.0039-.0166-.0039-.0244l.0273-.0283ZM8.9668,13.8736c.0195.0088.0293.0137.0322.0166-.0049.0029-.0088.0049-.0098.0078s-.0049.0068-.0107.0117c-.0049,0-.0088-.001-.0117-.0039-.002-.0029-.0059-.0049-.0117-.0078.002-.0049.0049-.0098.0059-.0137.002-.0039.0039-.0078.0059-.0107ZM9.0195,13.6822l.0078.0078c-.0059.0107-.0098.0176-.0117.0205-.0039-.0029-.0059-.0059-.0059-.0088-.002-.002-.0039-.0049-.0068-.0078.0049-.0029.0107-.0068.0166-.0117ZM9.043,13.5943v.0195c-.002.0059-.0039.0127-.0059.0205s-.0049.0186-.0098.0312l.0273-.0312c0-.0059-.002-.0137-.0078-.0244.0059-.0049.0078-.0107.0078-.0156.0166-.0107.042-.0293.0762-.0566h-.0762v.0244c0,.0078-.002.0215-.0078.04v-.0039l-.0039-.0039ZM9.0469,12.8023c-.0049,0-.0098.0029-.0156.0078l.0039.0039c0,.0029.002.0039.0039.0039l.0156-.0078c0-.0107-.002-.0137-.0078-.0078ZM9.0547,13.5943v-.0566h.0762c-.0342.0273-.0596.0459-.0762.0566ZM9.1309,13.5103c-.002-.0029-.0039-.0039-.0059-.0039s-.0039-.002-.0059-.0039c-.0029,0-.0059-.002-.0078-.0049,0-.0098.002-.0234.0078-.04,0,.0029.002.0049.0078.0049.0029,0,.0059.001.0078.0039,0,.0156-.001.0303-.0039.0439ZM9.1191,13.4576c-.0059.0166-.0078.0303-.0078.04.002.0029.0049.0049.0078.0049.002.002.0039.0039.0059.0039s.0039.001.0059.0039c.0029-.0137.0039-.0283.0039-.0439-.002-.0029-.0049-.0039-.0078-.0039-.0059,0-.0078-.002-.0078-.0049ZM9.1875,13.3785c.0049.002.0117.0078.0195.0156l.0078-.0156c-.0049,0-.0098-.0029-.0156-.0088-.0029,0-.0049.002-.0059.0039-.002.0029-.0039.0049-.0059.0049ZM9.207,13.3941c-.0078-.0078-.0146-.0137-.0195-.0156.002,0,.0039-.002.0059-.0049.001-.002.0029-.0039.0059-.0039.0059.0059.0107.0088.0156.0088l-.0078.0156ZM9.667,13.5181c.0059.0107.0078.0176.0078.0195l.0088-.0078c0-.0078-.0029-.0146-.0088-.0195l-.0078.0078ZM9.667,13.5181l.0078-.0078c.0059.0049.0088.0117.0088.0195l-.0088.0078c0-.002-.002-.0088-.0078-.0195ZM9.8467,13.3541c-.0049.0059-.0088.0078-.0117.0078l-.0117-.0117.0078-.0078c.0029.002.0059.0049.0078.0059.0029.001.0059.0029.0078.0059Z"/>
      <path d="M10.7666,13.9898c-.0205.0752-.0557.1387-.1035.1904s-.0879.1055-.1201.1621c-.0342.0557-.0762.1074-.126.1533-.0498.0469-.1006.0957-.1543.1465-.0078-.0059-.0156-.0107-.0234-.0156-.0078-.0059-.0176-.0098-.0283-.0127-.0557-.0049-.0996-.0234-.1299-.0537s-.0537-.0713-.0703-.1221c0-.0264-.0107-.0508-.0312-.0723-.0195-.0234-.0303-.0488-.0342-.0762-.0039-.0264-.0039-.0557.002-.0879.0029-.0264.0059-.0527.0098-.0781s.001-.0518-.0098-.0811c-.0107-.0215-.0127-.0469-.0059-.0742.0059-.0283.0068-.0566.002-.0859-.0059-.0293-.0068-.0625-.0039-.0986.002-.0361.0146-.0693.0352-.1016.0059-.0078.0088-.0166.0107-.0264.001-.0088.002-.0176.002-.0254.0049-.0674.0166-.1328.0342-.1963.0166-.0645.0352-.1279.0537-.1924.0186-.0527.0293-.1074.0322-.1641.002-.0557.0059-.1104.0117-.1641.0049-.04.0088-.0791.0117-.1191s0-.0801-.0078-.1201c-.0059-.0215-.0117-.042-.0176-.0605-.0068-.0186-.0215-.041-.042-.0674.0312.0127.0605.0166.0859.0098s.0479-.001.0693.0176c.0059.0059.0146.0088.0264.0107.0117.001.0234,0,.0342-.0029.0508-.0049.0977-.002.1416.0107.0439.0117.0889.0254.1338.042.0352.0127.0635.0312.0859.0557.0234.0244.0469.0469.0703.0684.0078.0049.0146.0186.0205.04.0049.0215.0059.042.0039.0635-.0059.0664-.0215.1309-.0479.1924-.0273.0615-.0488.124-.0645.1875-.0107.0352-.0264.0664-.0459.0947-.0205.0273-.0352.0576-.0459.0898-.0059.0293-.0127.0596-.0205.0918s-.0156.0625-.0234.0918c-.0029.0059-.0068.0107-.0127.0166-.0049.0049-.0088.0098-.0117.0156-.0029.0107-.0068.0205-.0137.0303-.0068.0088-.0127.0186-.0186.0273-.0049.0098-.0088.0195-.0098.0303s.0049.0215.0186.0322c-.0088.0234-.0166.0479-.0244.0723-.0078.0234-.0186.0459-.0322.0674-.0049.0137-.0146.0264-.0273.0381-.0137.0117-.0195.0205-.0166.0264.0107.0127.0156.0254.0137.0361-.001.0098-.0039.0205-.0098.0312-.0049.0107-.0107.0225-.0156.0342-.0059.0117-.0078.0244-.0078.0381.002.0371,0,.0762-.0059.1162-.0068.04-.0127.0781-.0186.1162.0479-.0107.0898-.0322.126-.0625s.0752-.0566.1182-.0781c.0449-.0234.083-.0547.1143-.0938.0303-.0391.0684-.0771.1133-.1143ZM11.0713,12.0816c-.083.083-.1738.1426-.2744.1787-.0996.0361-.2002.0469-.3018.0342-.0215-.0166-.042-.0254-.0625-.0264-.0195-.001-.04.001-.0596.0078-.0205.0068-.041.0156-.0625.0264-.0205.0107-.041.0186-.0596.0234-.0371.0107-.0723.0156-.1055.0146-.0342-.002-.0693-.0059-.1064-.0146.0137-.002.0332-.0039.0596-.0039.1016-.0049.1807-.0361.2383-.0938s.0957-.1289.1143-.2139c0-.0137.0029-.0244.0078-.0342s.0107-.0205.0156-.0342c.0029-.0127.0068-.0283.0127-.0459.0049-.0176.0049-.0312,0-.042-.0107-.0215-.0146-.0381-.0127-.0518.0029-.0137.0127-.0312.0283-.0518.0137-.0273.0137-.0518,0-.0742s-.0215-.0479-.0234-.0742c0-.0049-.002-.0117-.0049-.0176-.002-.0068-.0049-.0127-.0078-.0186.0352-.0186.0625-.0215.082-.0078.0205.0137.0381.0264.0537.04.0303.0244.0615.043.0967.0557.0342.0137.0723.0234.1113.0283.0273.0049.0527.0156.0781.0303s.0488.0312.0703.0498c.0371.0264.0713.0537.1016.0801.0312.0264.0625.0518.0947.0762.0215.0156.0439.0254.0693.0273.0254.0029.0508.0029.0742,0-.0215.0215-.043.0332-.0654.0361-.0234.0029-.0449.0098-.0664.0205-.0049.002-.0107.0059-.0156.0098-.0059.0039-.0127.0088-.0205.0137-.0107.0029-.0215.0029-.0342,0-.0117-.002-.0205.0068-.0254.0283-.0029,0-.0098.0029-.0205.0078.0059.0029.0127.0078.0205.0156ZM10.3867,13.7623c0-.0029.001-.0049.002-.0059.002-.002.002-.0039.002-.0059h-.0518c0,.002-.001.0039-.002.0059-.001.001-.002.0029-.002.0059h.0518ZM10.3711,13.8218l-.0078.0039c-.0029,0-.0039.002-.0039.0039,0,.0029.002.0098.0078.0205,0-.0029.001-.0039.0039-.0039l.0039-.0039c-.0049-.0107-.0068-.0176-.0039-.0205Z"/>
    </g>
  </g></g>
</svg>