<?xml version="1.0" encoding="UTF-8"?>
<svg id="Logo" xmlns="http://www.w3.org/2000/svg" viewBox="0 0 14.7049 15.3582">
  <defs>
    <style>
      .cls-1 {
        fill: #4e48e0;
        stroke: #9592ec;
        stroke-width: .25px;
      }

      .cls-1, .cls-2 {
        stroke-miterlimit: 10;
      }

      .cls-2 {
        fill: #9592ec;
        stroke: #dad9f8;
        stroke-width: .1px;
      }

      .cls-3 {
        fill: #fff;
      }
    </style>
  </defs>
  <g id="Abajo">
    <polygon class="cls-1" points="8.0413 .4877 8.0413 5.0876 10.3877 2.7876 14.3371 .3715 11.6422 4.8785 10.0857 6.6673 13.948 6.6673 12.3188 8.43 9.261 8.43 9.261 12.3068 12.1359 12.3068 12.1359 10.4947 13.9131 12.0106 13.9131 14.0579 7.5195 14.0579 7.5195 9.3012 3.4937 13.1693 .3749 14.9987 2.4744 11.5576 4.8441 8.4561 .2965 8.4561 2.004 6.7051 6.3251 6.7051 6.3251 2.2533 8.0413 .4877"/>
    <path class="cls-1" d="M1.5132,2.3927l2.1809,3.537h1.9602l-2.1257-3.537s-2.0081-.0073-2.0153,0Z"/>
  </g>
  <g id="Intermedio">
    <path class="cls-2" d="M6.8795,2.4739l.61-.551v4.5195c0,.0098,3.2535-3.1814,3.2535-3.1814l2.9977-2.3024-2.919,3.9488-2.0466,2.3549h3.8176l-.5608.5608h-3.4011v5.1066h4.1391v-1.1348l.5444.4657v1.2004h-5.2148v-5.6281l-4.7491,4.6966-2.6998,2.1901,1.966-2.5,3.4818-4.3821H1.7427l.5227-.5576h4.6608s-.0467-4.8208-.0467-4.8062Z"/>
    <polygon class="cls-2" points="2.5703 3.0025 3.999 5.3896 4.6437 5.3896 3.2324 3.0025 2.5703 3.0025"/>
  </g>
  <g id="Blanco">
    <polygon class="cls-3" points="13.2684 1.4054 10.9337 3.682 7.054 7.6314 4.0571 11.0116 1.5132 13.8459 3.0581 12.3707 5.1258 10.2798 8.9125 6.3072 13.2684 1.4054"/>
  </g>
</svg>